<?xml version="1.0" encoding="utf-8"?>
<!-- Generator: Adobe Illustrator 19.1.1, SVG Export Plug-In . SVG Version: 6.00 Build 0)  -->
<svg version="1.1" id="Layer_1" xmlns="http://www.w3.org/2000/svg" xmlns:xlink="http://www.w3.org/1999/xlink" x="0px" y="0px"
	 viewBox="-216 403.312012 248.666672 38.056667" style="enable-background:new -216 403.312012 248.666672 38.056667;"
	 xml:space="preserve">
<style type="text/css">
	.st0{fill:#F6B2B6;}
	.st1{fill:#9D9C9C;}
</style>
<g>
	<path class="st0" d="M-204.902557,422.409454c3.720703-1.453125,8.201172-2.180176,13.441406-2.180176
		c2.586426,0,5.172363,0.384766,7.758789,1.154297c0.612305-0.598145,1.519531-1.490723,2.722168-2.677246
		c1.202148-1.186035,2.154785-2.120605,2.858398-2.805176c2.041504-1.987793,3.708984-3.451172,5.001953-4.39209
		c2.177734-1.603027,4.173828-2.404297,5.989258-2.404297c0.816406,0,1.56543,0.123047,2.245605,0.368652
		c0.680664,0.245605,1.088867,0.437988,1.225098,0.577148s0.204102,0.219238,0.204102,0.240234
		c0,0.021484-0.022949,0.059082-0.067871,0.112305c-0.045898,0.053711-0.11377,0.026855-0.204102-0.080078
		c-0.431152-0.384766-1.270996-0.577148-2.518066-0.577148c-2.109863,0-4.333496,0.865723-6.669922,2.59668
		c-1.678711,1.282227-3.074219,2.452637-4.185547,3.510742s-2.274414,2.180176-3.487793,3.366211
		c-1.213867,1.186035-2.036133,1.98291-2.466797,2.388672c2.268066,0.790527,3.504883,1.827148,3.708984,3.109375
		c0.022461,0.128418,0.01709,0.214355-0.01709,0.256836c-0.03418,0.042969-0.07959,0.042969-0.13623,0
		c-0.056641-0.04248-0.09668-0.106934-0.119141-0.192383c-0.181641-0.405762-0.816406-0.726563-1.905273-0.961914
		c-0.975586-0.213379-2.098633-0.373535-3.369141-0.480957c-4.605469,4.189453-8.677246,6.850586-12.21582,7.98291
		c-1.928711,0.641113-3.754883,0.961914-5.479004,0.961914c-3.085449,0-5.223145-0.432617-6.414063-1.29834
		s-1.786621-1.821777-1.786621-2.869629c0-0.405762,0.07959-0.822266,0.238281-1.25
		C-209.870331,425.113556-207.987518,423.627716-204.902557,422.409454z M-187.854218,423.211212
		c-3.01709,0-6.192871,0.299316-9.527832,0.897461c-5.126953,0.85498-8.461914,2.126953-10.004395,3.814941
		c-0.476563,0.534668-0.714355,1.037109-0.714355,1.506836c0,0.556152,0.317383,1.058105,0.952637,1.506836
		c0.748535,0.53418,2.046875,0.801758,3.895996,0.801758s3.850586-0.288574,6.006348-0.865723
		c3.220703-0.94043,7.055176-3.473145,11.501465-7.598145C-186.447479,423.232697-187.151093,423.211212-187.854218,423.211212z
		 M-176.590546,433.630646c0.044922,0.020996,0.067871,0.063965,0.067871,0.12793
		c-0.04541,0.149414-0.13623,0.181641-0.271973,0.096191c-1.973633-1.303711-2.960449-3.216309-2.960449-5.73877
		c0-1.046875,0.221191-2.164063,0.663574-3.350098s1.22998-2.612793,2.364746-4.280273
		c1.134277-1.666992,2.234375-3.109375,3.300781-4.327637c1.065918-1.218262,2.092773-2.356445,3.07959-3.414551
		s1.502441-1.629395,1.54834-1.715332c0.271973-0.384766,0.453613-0.341797,0.544434,0.128418
		c0.022461,0.149902,0.03418,0.320313,0.03418,0.512695s-0.057129,0.36377-0.17041,0.513184
		c-1.406738,1.624512-2.768066,3.462402-4.083496,5.51416c-2.200684,3.462402-3.776855,6.615234-4.72998,9.458008
		c-0.362793,1.132813-0.544434,2.308105-0.544434,3.526367S-177.36203,432.882111-176.590546,433.630646z"/>
	<path class="st0" d="M-165.735565,423.59549c0.317383-0.341309,0.476563-0.608887,0.476563-0.80127
		s-0.209961-0.288574-0.629883-0.288574s-1.083496,0.374023-1.990234,1.12207
		c-0.839844,0.684082-1.85498,1.827637-3.045898,3.430664s-2.053223,2.687988-2.585938,3.253906
		c-0.533203,0.565918-1.003906,0.849609-1.412109,0.849609c-0.04541,0-0.090332,0-0.13623,0
		c-0.589844,0-1.167969-0.224609-1.735352-0.67334c0.135742-0.192383,0.464844-0.608887,0.986816-1.250488
		c1.156738-1.324707,2.166016-2.607422,3.02832-3.847168c-0.975586,0.919434-1.803223,1.635254-2.483887,2.147949
		c-0.226563,0.171387-0.357422,0.182129-0.391602,0.032227c-0.033691-0.149414,0.01709-0.283203,0.15332-0.400879
		c0.13623-0.117188,0.363281-0.30957,0.680664-0.57666s0.527344-0.443359,0.629395-0.529297
		c0.102051-0.084961,0.294434-0.250977,0.578613-0.49707c0.283203-0.245117,0.493164-0.443359,0.629395-0.592773
		c0.634766-0.705566,1.100098-1.303711,1.39502-1.79541c0.113281-0.256348,0.164551-0.507324,0.15332-0.753418
		c-0.011719-0.245605-0.068359-0.405762-0.17041-0.480957c-0.102051-0.074707-0.141602-0.165527-0.118652-0.272461
		c0-0.170898,0.090332-0.256348,0.271973-0.256348c0.090332,0,0.192383,0.021484,0.306152,0.063965
		c0.703125,0.299316,1.055176,0.892578,1.055176,1.779297c0,0.887207-0.204102,1.833008-0.612793,2.837402
		c0.884766-1.090332,1.553711-1.870117,2.007813-2.340332c1.179199-1.239258,2.336426-1.859863,3.470703-1.859863
		c1.111328,0,1.769531,0.449219,1.973633,1.34668c0.022461,0.128418,0.03418,0.326172,0.03418,0.593262
		c0,0.267578-0.10791,0.625-0.323242,1.07373c-0.21582,0.449219-0.720215,1.186523-1.51416,2.212402
		c-0.794434,1.025879-1.253906,1.672363-1.378418,1.939453c-0.125,0.267578-0.164551,0.464844-0.119141,0.593262
		s0.147461,0.203125,0.306641,0.224609c0.271973,0.042969,0.736816-0.128418,1.39502-0.513184
		c0.929688-0.619629,2.131836-1.570801,3.606934-2.853516c0.249512-0.234863,0.374512-0.213379,0.374512,0.064453
		c0,0.106934-0.057129,0.213867-0.17041,0.320313c-2.200684,1.923828-3.833984,3.121094-4.899902,3.59082
		c-1.248047,0.598145-2.223633,0.694336-2.92627,0.288574c-0.431641-0.256348-0.646973-0.614258-0.646973-1.074219
		c0-0.458984,0.090332-0.923828,0.272461-1.394531C-168.832245,427.218536-167.663788,425.647736-165.735565,423.59549z"/>
	<path class="st0" d="M-151.545624,429.302521c-0.431152,1.111328-0.646484,2.019531-0.646484,2.725098
		c0,0.705078,0.158203,1.239258,0.476074,1.603027c0.068359,0.084961,0.07959,0.144043,0.03418,0.17627
		c-0.045898,0.031738-0.07959,0.047852-0.102051,0.047852c-0.022949,0-0.056641-0.010742-0.102051-0.031738
		c-0.726074-0.556152-1.088867-1.384277-1.088867-2.484863s0.238281-2.366699,0.714355-3.799316
		c-0.930176,1.133301-1.849121,2.062988-2.756348,2.789551c-1.088867,0.854492-2.200684,1.282227-3.334473,1.282227
		c-0.726563,0-1.406738-0.22998-2.041992-0.689453c-0.635254-0.458984-0.952637-1.212402-0.952637-2.259766
		c-0.022949-0.513184,0.079102-1.100586,0.306152-1.763672c-0.453613,0.384766-0.742676,0.620117-0.867676,0.705566
		c-0.124512,0.085449-0.209473,0.085449-0.254883,0s-0.068359-0.165527-0.068359-0.240723
		c0-0.074707,0.07373-0.170898,0.221191-0.288574c0.147949-0.117188,0.936035-0.902344,2.365234-2.356445
		c0.838867-0.875977,1.837402-1.55957,2.994141-2.051758c1.157227-0.491211,2.257324-0.737305,3.300781-0.737305
		c0.953125,0,1.650391,0.155273,2.092773,0.464844c0.442383,0.310059,0.663574,0.700195,0.663574,1.17041
		c0.816895-1.624023,1.695801-3.168457,2.637207-4.632813c0.941406-1.463867,1.672852-2.473633,2.194824-3.029785
		c0.566895-0.598145,1.281738-0.897461,2.144043-0.897461c0.861816,0,1.564941,0.224121,2.109863,0.67334
		c-0.476563,0.277832-1.407227,1.197266-2.790527,2.756836c-1.384277,1.560547-2.733887,3.233398-4.049316,5.017578
		C-149.662811,425.236115-150.729218,427.18631-151.545624,429.302521z M-151.273651,423.24295
		c0-0.427246-0.283691-0.641113-0.850586-0.641113c-0.294922,0-0.680664,0.085449-1.156738,0.256348
		c-1.066895,0.384766-2.121582,1.133301-3.165039,2.244141c-1.292969,1.389648-1.939453,2.714844-1.939453,3.975586
		c0,0.748535,0.260742,1.197266,0.782715,1.34668c0.113281,0.042969,0.226563,0.063965,0.340332,0.063965
		c0.929688,0,2.313965-0.875977,4.151367-2.628906c0.499023-0.44873,0.918945-0.929688,1.259277-1.442871
		c0.181152-0.491211,0.419434-1.057617,0.714355-1.699219c-0.204102,0.128418-0.369141,0.144531-0.493164,0.04834
		c-0.125-0.096191-0.097168-0.30957,0.084961-0.641113C-151.364471,423.793732-151.273651,423.499298-151.273651,423.24295z"/>
	<path class="st0" d="M-141.575409,422.698029c-0.930176,0.897461-1.707031,2.035645-2.331055,3.414551
		c-0.624023,1.378418-0.935547,2.345703-0.935547,2.901367c0,0.556152,0.232422,0.833496,0.697754,0.833496
		c0.464355,0,1.23584-0.320801,2.313477-0.961914s2.308105-1.549316,3.692383-2.725098
		c0.294434-0.256348,0.442383-0.224121,0.442383,0.096191c0,0.042969-0.022949,0.085938-0.068359,0.128418
		c-1.088867,0.897461-2.007324,1.634766-2.755859,2.211914c-0.749023,0.577148-1.639648,1.12793-2.671387,1.651367
		c-1.032715,0.523926-1.877441,0.785156-2.535156,0.785156c-0.816895,0-1.423828-0.171387-1.820313-0.512695
		c-0.397461-0.341797-0.595703-0.71582-0.595703-1.12207c0-0.769531,0.147461-1.378906,0.442383-1.827637
		c0.294434-0.44873,0.793945-1.068359,1.49707-1.859375c-0.25,0.192383-0.641113,0.512695-1.173828,0.961914
		c-0.533203,0.44873-0.901855,0.748047-1.105957,0.897461c-0.204102,0.149902-0.306152,0.107422-0.306152-0.128418
		c0-0.148926,0.181641-0.362793,0.544434-0.641113c0.362305-0.277344,1.150879-0.98291,2.364746-2.115723
		c1.213379-1.132813,2.041992-1.806152,2.484375-2.02002c0.442383-0.213379,0.804688-0.320313,1.088867-0.320313
		c0.283203,0,0.493164,0.037598,0.629395,0.112305S-141.50705,422.613068-141.575409,422.698029z M-141.133026,420.99881
		c-0.25-0.192383-0.352051-0.469727-0.306152-0.833496c0.044922-0.363281,0.249512-0.748047,0.612305-1.154297
		c0.362793-0.405762,0.851074-0.608887,1.463379-0.608887c0.181152,0,0.374512,0.080078,0.578613,0.240234
		s0.283203,0.427734,0.238281,0.801758c-0.045898,0.374023-0.227051,0.726563-0.544434,1.057617
		c-0.318359,0.331543-0.675293,0.54541-1.072266,0.641602C-140.560272,421.239044-140.883514,421.191193-141.133026,420.99881z"/>
</g>
<g>
	<path class="st1" d="M-128.882538,430.488556c-2.087402,0.469727-3.777344,0.598145-5.070313,0.384766
		c-2.336914-0.384766-3.822754-1.154297-4.45752-2.308105c-0.227051-0.405762-0.340332-0.76416-0.340332-1.074219
		c0-0.30957,0.021973-0.561035,0.067871-0.753418c0.13623-0.662109,0.572754-1.367676,1.310059-2.116211
		c0.736816-0.747559,1.763672-1.463379,3.07959-2.147949l1.769531-0.929688c0.408203-3.547363,2.778809-6.58252,7.111816-9.10498
		c1.70166-1.004395,3.130859-1.506836,4.287598-1.506836c0.385742,0,0.737305,0.053711,1.055176,0.160156
		c0.748535,0.256836,1.122559,0.716797,1.122559,1.378906c0,1.153809-0.828125,2.351074-2.483887,3.59082
		c-0.907715,0.705078-1.894531,1.357422-2.960449,1.955566l-5.920898,3.333984c0,0.149902,0,0.464844,0,0.945801
		s0.102051,1.117188,0.306152,1.907715c1.723633-0.918945,3.606934-1.539063,5.648926-1.859375
		c0.998047-0.170898,1.871582-0.256836,2.620117-0.256836c1.859863,0,2.914551,0.556152,3.164551,1.66748
		c0.022461,0.149414,0.03418,0.288574,0.03418,0.416504c0,0.727051-0.419922,1.48584-1.259277,2.276367
		c-1.474609,1.389648-3.947266,2.586426-7.417969,3.59082c1.383301,1.773926,2.90332,2.981445,4.55957,3.622559
		c1.111328,0.449219,1.973633,0.67334,2.586426,0.67334c0.612305,0,1.037598-0.123047,1.275879-0.368652
		c0.238281-0.246094,0.357422-0.502441,0.357422-0.769531c0-0.267578-0.15918-0.58252-0.476563-0.945801
		c-0.680664-0.833496-1.679199-1.25-2.994629-1.25c-0.135742,0-0.345703,0.015625-0.629395,0.047852
		s-0.425293,0.016113-0.425293-0.047852c-0.067871-0.171387,0.090332-0.288574,0.476563-0.353027
		c0.612305-0.084961,1.179199-0.12793,1.701172-0.12793c1.45166,0,2.484375,0.373535,3.09668,1.12207
		c0.317383,0.341309,0.476563,0.688965,0.476563,1.041992c0,0.352539-0.13623,0.709961-0.408691,1.07373
		c-0.521973,0.726563-1.36084,1.090332-2.518066,1.090332c-0.907227,0-1.860352-0.203613-2.858398-0.609375
		C-125.332245,433.298615-127.295135,432.048615-128.882538,430.488556z M-135.620331,430.007599
		c0.726074,0.27832,1.519531,0.416992,2.382324,0.416992c1.40625,0,2.710449-0.117188,3.913086-0.352539
		c-1.157227-1.26123-1.985352-2.51123-2.483887-3.751465c-0.771484,0.428223-1.236816,0.72168-1.395508,0.881836
		s-0.25,0.235352-0.271973,0.224609c-0.022949-0.010742-0.022949-0.080566,0-0.208496
		c0.067871-0.469727,0.498535-1.015137,1.292969-1.635254l0.067871-0.031738
		c-0.317871-1.004395-0.476074-1.966309-0.476074-2.885742l-0.986816,0.577148
		c-1.248047,0.8125-2.194824,1.656738-2.841797,2.532715c-0.646484,0.876953-0.969727,1.699219-0.969727,2.46875
		S-136.800018,429.601837-135.620331,430.007599z M-123.488983,416.254181c1.031738-0.85498,1.54834-1.629883,1.54834-2.324707
		c0-0.694336-0.38623-1.041992-1.157227-1.041992c-0.884766,0-1.939453,0.395996-3.164551,1.186523
		c-2.336914,1.496094-3.641113,3.59082-3.913086,6.283691c0.408203-0.234863,1.100098-0.609375,2.075684-1.12207
		C-126.058319,418.102814-124.521698,417.109161-123.488983,416.254181z M-119.354706,424.365021
		c0-0.598145-0.658203-0.897461-1.973633-0.897461c-2.223633,0-5.013672,0.641113-8.371094,1.92334
		c0.476563,1.518066,1.190918,2.928711,2.144043,4.231934c2.767578-0.812012,5.024414-1.934082,6.771484-3.366211
		C-119.83078,425.487091-119.354706,424.857208-119.354706,424.365021z"/>
	<path class="st1" d="M-117.517303,431.963165c0-1.025879,1.633301-3.782715,4.900391-8.271484
		c-0.11377-0.384766-0.17041-0.737305-0.17041-1.057617c0-0.320801,0.283691-0.694336,0.851074-1.12207
		c0.566406-0.427734,0.997559-0.641602,1.292969-0.641602c0.044922,0,0.079102,0,0.102051,0
		c1.338379-1.730957,2.529297-3.194824,3.572754-4.39209c1.043457-1.196777,1.655762-1.79541,1.837891-1.79541
		c0.181152,0,0.323242,0.069824,0.425293,0.208496c0.102051,0.13916,0.152832,0.283691,0.152832,0.432617
		c-1.814941,2.116211-3.674805,4.40332-5.580566,6.86084l0.068359,0.224609l1.224609-0.096191
		c1.724121-0.106445,3.595703-0.475586,5.614746-1.105957s3.675293-1.351563,4.968262-2.164063
		c2.676758-1.709961,4.015625-3.280762,4.015625-4.712891c0-0.619629-0.442383-1.143066-1.327148-1.570801
		c-0.884766-0.427246-2.269043-0.641113-4.151855-0.641113c-1.883301,0-4.44043,0.432617-7.67334,1.29834
		c-3.232422,0.865723-5.484375,1.811035-6.754395,2.837402c-0.363281,0.299316-0.493652,0.53418-0.391602,0.705078
		c0.102051,0.171387,0.119141,0.267578,0.05127,0.288574c-0.068359,0.021484-0.17041-0.010742-0.306152-0.096191
		c-0.476563-0.256348-0.777344-0.577148-0.901855-0.961914c-0.125-0.384766-0.1875-0.67334-0.1875-0.865723
		s0.056641-0.331055,0.17041-0.416504c0.748535-1.025879,2.421387-1.992676,5.019043-2.901367
		c2.597656-0.908203,4.996582-1.506836,7.197266-1.79541c2.200195-0.288574,3.828125-0.433105,4.882813-0.433105
		c1.055176,0,1.928223,0.064453,2.620117,0.192383c0.691895,0.128418,1.310547,0.416992,1.85498,0.865723
		c0.838867,0.662598,1.258789,1.592773,1.258789,2.789063c0,1.175781-0.465332,2.266113-1.39502,3.270508
		c-0.930664,1.004883-2.126953,1.907227-3.589844,2.708984c-1.463379,0.80127-3.23877,1.522949-5.325684,2.164063
		c-2.427734,0.748535-4.662109,1.12207-6.703613,1.12207c0.725586,1.709961,2.183105,3.436035,4.372559,5.177734
		c2.188965,1.742188,3.998535,2.612793,5.427734,2.612793c0.566895,0,1.065918-0.128418,1.49707-0.384766
		c0.430664-0.256348,0.680664-0.577148,0.748535-0.961914c0-0.106445,0.056641-0.138672,0.17041-0.096191
		c0.044922,0.064453,0.067871,0.117676,0.067871,0.160645c-0.181641,1.431641-1.474609,2.147949-3.879395,2.147949
		c-1.383789,0-2.824219-0.342285-4.321289-1.025879c-1.497559-0.684082-2.773438-1.539063-3.828125-2.564941
		c-1.055176-1.025879-1.888672-2.083984-2.501465-3.173828c-2.404785,3.291504-3.890625,5.610352-4.45752,6.957031
		c-0.13623,0.341309-0.323242,0.512695-0.561523,0.512695S-117.517303,432.155548-117.517303,431.963165z"/>
	<path class="st1" d="M-91.043671,430.232208c-1.52002,0.726074-2.847168,1.089844-3.981445,1.089844
		c-0.952637,0-1.599121-0.299316-1.939453-0.897461c-0.181152-0.299316-0.271973-0.641113-0.271973-1.025879
		c0-0.876465,0.215332-1.731445,0.646484-2.564941c-0.29541,0.277832-0.578613,0.502441-0.851074,0.67334
		c-0.226074,0.192383-0.339844,0.171387-0.339844-0.064453c0-0.148926,0.19873-0.384277,0.595215-0.705078
		s1.003906-0.860352,1.820801-1.619141c0.816406-0.758301,1.462891-1.330566,1.939453-1.715332
		c1.383301-1.089844,2.84668-1.634766,4.389648-1.634766c0.566895,0,1.14502,0.13916,1.735352,0.416504
		c0.861816,0.384766,1.292969,1.090332,1.292969,2.116211c0,1.239746-0.658203,2.511719-1.973633,3.814941
		c-0.521973,0.556152-1.247559,1.111816-2.177734,1.66748c1.859863-0.277832,3.833496-1.335938,5.920898-3.174316
		c0.113281-0.084961,0.215332-0.122559,0.306152-0.111816s0.13623,0.059082,0.13623,0.144043
		c0,0.085449-0.04541,0.171387-0.13623,0.256348c-2.495605,2.223145-4.820801,3.334473-6.975586,3.334473
		C-90.953339,430.232208-90.99826,430.232208-91.043671,430.232208z M-87.742889,426.865997
		c0.566895-0.812012,0.850586-1.501465,0.850586-2.067871s-0.260742-0.999023-0.782227-1.298828
		c-0.29541-0.234863-0.635742-0.352539-1.020996-0.352539c-1.384277,0-2.660156,0.513184-3.828125,1.539063
		c-1.168945,1.025879-1.945801,2.115723-2.331055,3.27002c-0.15918,0.40625-0.238281,0.828613-0.238281,1.266602
		s0.175293,0.748047,0.527344,0.929688c0.351563,0.181641,0.742676,0.272461,1.174316,0.272461
		c0.430664,0,1.054688-0.203125,1.871582-0.609375c-0.045898,0-0.114258-0.020996-0.20459-0.063965
		c-0.271973-0.128418-0.408203-0.299316-0.408203-0.513184c0-0.747559,0.442383-1.506836,1.327148-2.275879
		c0.634766-0.53418,1.28125-0.801758,1.939453-0.801758C-88.208221,426.160431-87.83371,426.395782-87.742889,426.865997z"/>
	<path class="st1" d="M-71.034882,423.339142c0,1.496582-0.794434,3.121094-2.382324,4.873047
		c-1.179688,1.304199-2.472656,2.266113-3.878906,2.885742c-0.749023,0.320313-1.401367,0.480469-1.957031,0.480469
		c-0.556152,0-1.060547-0.144043-1.51416-0.432617c-0.454102-0.288574-0.680664-0.731934-0.680664-1.330566
		c0-0.598145,0.090332-1.186035,0.272461-1.763184c-0.794434,1.133301-1.417969,1.93457-1.871582,2.404297
		c-0.454102,0.470215-0.884766,0.705566-1.292969,0.705566c-0.04541,0-0.102051,0-0.17041,0
		c-0.589355,0-1.156738-0.224609-1.701172-0.67334c1.474609-1.944824,2.620117-3.526367,3.436523-4.744629
		c-0.521973,0.491699-1.168457,1.036621-1.939453,1.634766c-0.204102,0.149902-0.345703,0.17627-0.425293,0.080078
		c-0.079102-0.096191,0.005859-0.250977,0.255371-0.464844c0.680176-0.533691,1.156738-0.918457,1.429199-1.153809
		c0.884766-0.812012,1.950684-2.137207,3.19873-3.975586c3.470703-5.06543,5.206055-8.20752,5.206055-9.425781
		c0-0.427246-0.227051-0.651855-0.680664-0.67334c-0.04541,0-0.067871-0.020996-0.067871-0.063965
		c0-0.04248,0.022461-0.063965,0.067871-0.063965c1.043457,0.042969,1.644531,0.694824,1.803711,1.955566
		c0,0.085449,0,0.181641,0,0.288574c0,1.666992-1.475098,4.937012-4.423828,9.810059
		c1.134277-1.068359,2.279785-1.816406,3.437012-2.244141c0.566895-0.213379,1.094238-0.320313,1.58252-0.320313
		c0.487305,0,0.946777,0.106934,1.37793,0.320313C-71.341522,421.918243-71.034882,422.548615-71.034882,423.339142z
		 M-75.731171,423.115021c-0.362793,0-0.816406,0.13916-1.36084,0.416504c-0.975586,0.492188-1.837891,1.282227-2.586426,2.372559
		c-0.884766,1.26123-1.327148,2.46875-1.327148,3.622559c0,0.769531,0.226563,1.271484,0.680664,1.506836
		c0.249512,0.149414,0.561523,0.224609,0.936035,0.224609c0.374023,0,0.844727-0.13916,1.412109-0.416992
		c0.952637-0.44873,1.814453-1.228516,2.585938-2.340332c0.861816-1.260742,1.292969-2.473633,1.292969-3.638672
		C-74.09787,423.69754-74.642303,423.115021-75.731171,423.115021z"/>
	<path class="st1" d="M-64.298065,422.698029c-0.930176,0.897461-1.707031,2.035645-2.331055,3.414551
		c-0.624023,1.378418-0.935547,2.345703-0.935547,2.901367c0,0.556152,0.232422,0.833496,0.697754,0.833496
		c0.464355,0,1.23584-0.320801,2.313477-0.961914s2.308105-1.549316,3.692383-2.725098
		c0.294434-0.256348,0.442383-0.224121,0.442383,0.096191c0,0.042969-0.022949,0.085938-0.068359,0.128418
		c-1.088867,0.897461-2.007324,1.634766-2.755859,2.211914c-0.749023,0.577148-1.639648,1.12793-2.671387,1.651367
		c-1.032715,0.523926-1.877441,0.785156-2.535156,0.785156c-0.816895,0-1.423828-0.171387-1.820313-0.512695
		c-0.397461-0.341797-0.595703-0.71582-0.595703-1.12207c0-0.769531,0.147461-1.378906,0.442383-1.827637
		c0.294434-0.44873,0.793945-1.068359,1.49707-1.859375c-0.25,0.192383-0.641113,0.512695-1.173828,0.961914
		c-0.533203,0.44873-0.901855,0.748047-1.105957,0.897461c-0.204102,0.149902-0.306152,0.107422-0.306152-0.128418
		c0-0.148926,0.181641-0.362793,0.544434-0.641113c0.362305-0.277344,1.150879-0.98291,2.364746-2.115723
		c1.213379-1.132813,2.041992-1.806152,2.484375-2.02002c0.442383-0.213379,0.804688-0.320313,1.088867-0.320313
		c0.283203,0,0.493164,0.037598,0.629395,0.112305S-64.229706,422.613068-64.298065,422.698029z M-63.855682,420.99881
		c-0.25-0.192383-0.352051-0.469727-0.306152-0.833496c0.044922-0.363281,0.249512-0.748047,0.612305-1.154297
		c0.362793-0.405762,0.851074-0.608887,1.463379-0.608887c0.181152,0,0.374512,0.080078,0.578613,0.240234
		s0.283203,0.427734,0.238281,0.801758c-0.045898,0.374023-0.227051,0.726563-0.544434,1.057617
		c-0.318359,0.331543-0.675293,0.54541-1.072266,0.641602C-63.282928,421.239044-63.606171,421.191193-63.855682,420.99881z"/>
</g>
<g>
	<path class="st1" d="M19.998085,425.366425c1.111889-0.577789,1.667677-1.165527,1.667677-1.763306
		c0-0.597473-0.377615-0.896545-1.132877-0.896545c-0.356314,0-0.733614,0.089539-1.132217,0.268921
		c-0.880949,0.378693-1.730293,1.036316-2.548626,1.972534c-1.006774,1.155518-1.510075,2.231384-1.510075,3.227539
		c0,0.37854,0.110163,0.732178,0.330418,1.060699c0.220115,0.328766,0.613602,0.493408,1.179657,0.493408
		c0.986099,0,2.233734-0.493408,3.743912-1.479431c1.510075-0.986115,2.810719-1.977325,3.901203-2.97348
		c0.251928-0.239197,0.377613-0.249237,0.377613-0.030029c0,0.139648-0.063068,0.258911-0.188755,0.358521
		c-0.775904,0.677673-1.295179,1.13092-1.557375,1.359802c-0.262232,0.229309-0.781403,0.637604-1.557306,1.225342
		c-0.775904,0.587799-1.405378,1.001221-1.88748,1.240204c-1.489399,0.737152-2.752905,1.105591-3.791354,1.105591
		c-1.038099,0-1.856328-0.223999-2.453849-0.672089c-0.597764-0.448334-0.896472-1.071075-0.896472-1.868011
		c0-1.69339,0.796543-3.152832,2.390779-4.378143c1.593923-1.225037,3.261497-1.837646,5.002406-1.837646
		c1.17461,0,1.96113,0.238983,2.359524,0.717102c0.167767,0.239258,0.251476,0.493042,0.251476,0.761963
		c0,0.269043-0.094082,0.562897-0.283186,0.881653c-0.377266,0.617615-1.085331,1.160706-2.123432,1.628784
		c-1.038134,0.468231-2.018421,0.702271-2.941694,0.702271c-0.356277,0-0.550289-0.029785-0.581997-0.0896
		c-0.031361-0.059723-0.005117-0.104706,0.078592-0.13443c0.084057-0.030121,0.199476-0.044952,0.346254-0.044952
		C17.879873,426.203094,18.86566,425.924011,19.998085,425.366425"/>
	<path class="st1" d="M12.00703,423.752441c0,1.135742-0.618404,2.879028-1.85598,5.230011
		c-1.23761,2.350739-2.417024,4.089172-3.539216,5.214905c-1.122157,1.125702-2.522383,2.086914-4.200363,2.88382
		c-1.677597,0.796875-3.31381,1.195251-4.908046,1.195251c-1.593784,0-2.936196-0.348541-4.026644-1.045837
		c-1.321668-0.85675-1.982153-1.962524-1.982153-3.317139c0-0.099548,0.047233-0.144501,0.141558-0.134491
		c0.094082,0.01004,0.151999,0.074707,0.173336,0.194366c0.209395,1.115326,0.765183,2.02182,1.66726,2.719299
		c0.901694,0.697296,2.008014,1.045837,3.318926,1.045837c1.311051,0,2.920811-0.70224,4.829488-2.106689
		c1.908468-1.404633,3.607401-3.093018,5.096592-5.06543c1.551807-1.972473,2.747684-3.855011,3.586657-5.648376
		c-0.35687,0.438416-0.912658,0.946594-1.667573,1.524323c-0.041767,0.039795-0.09443,0.039795-0.157186,0
		c-0.146987-0.099548-0.167767-0.219238-0.06293-0.358795c1.468063-1.115479,2.286082-2.151672,2.453849-3.108002
		c0-0.318695-0.12579-0.517914-0.3773-0.597778c-0.10515-0.059357-0.115418-0.129333-0.031709-0.209167
		c0.084057-0.059723,0.188755-0.089539,0.31458-0.089539c0.587461,0,0.975379,0.348572,1.164238,1.045868
		C11.986389,423.304352,12.00703,423.513458,12.00703,423.752441"/>
	<path class="st1" d="M12.038738,420.913483c-0.230836-0.179382-0.325161-0.438416-0.283184-0.776855
		c0.041733-0.338745,0.230835-0.697327,0.566369-1.075867c0.335672-0.378693,0.786658-0.56778,1.352818-0.56778
		c0.167767,0,0.335534,0.06955,0.503301,0.209198c0.167767,0.139374,0.251475,0.288605,0.251475,0.44809
		c0,0.159363-0.010233,0.338806-0.031013,0.537964c-0.021336,0.199158-0.178382,0.453247-0.472287,0.761993
		c-0.293591,0.308716-0.62366,0.50824-0.990903,0.597748C12.568282,421.137634,12.269574,421.092957,12.038738,420.913483"/>
	<path class="st1" d="M3.512327,423.573395c-0.46101,0-1.100856,0.328796-1.918701,0.985992
		c-0.986134,0.796997-1.478818,1.753326-1.478818,2.869019c0,0.796875,0.335533,1.314911,1.006739,1.554047
		c0.608137-0.358429,1.195494-0.826996,1.762003-1.404663c1.006739-1.075653,1.510074-2.042023,1.510074-2.898804
		c0-0.418304-0.136406-0.747162-0.40887-0.985992C3.837941,423.613068,3.680094,423.573395,3.512327,423.573395
		 M2.380111,423.244537c-0.94367,0-1.976654,0.443237-3.098811,1.329742c-1.122192,0.88681-1.851211,1.868011-2.186745,2.943665
		c-0.105185,0.378601-0.157534,0.787323-0.157534,1.225372c0,0.438293,0.189103,0.806885,0.566404,1.105591
		c0.230836,0.099976,0.577124,0.149689,1.0381,0.149689c0.461706,0,1.164273-0.249237,2.108291-0.747101
		c-0.860309-0.358917-1.289959-0.98642-1.289959-1.882874c0-0.996155,0.393173-1.877808,1.179797-2.644653
		c0.786485-0.767151,1.630365-1.240173,2.532302-1.419617C2.841121,423.264587,2.610981,423.244537,2.380111,423.244537z
		 M2.128287,429.520477c-1.405377,0.677338-2.632336,1.015717-3.681087,1.015717c-0.880705,0-1.47847-0.278595-1.793363-0.83667
		c-0.167767-0.278992-0.251476-0.597748-0.251476-0.956207c0-0.816772,0.199127-1.613617,0.59773-2.3909
		c0.297803-0.562195,0.602672-1.057831,1.195529-1.628448c0.754915-0.727478,1.352784-1.260223,1.793363-1.599091
		c1.258355-0.996002,2.59029-1.494293,3.995771-1.494293c0.52408,0,1.059088,0.129669,1.604156,0.388702
		c0.79724,0.358429,1.195842,1.016083,1.195842,1.972412c0,1.155487-0.608346,2.340942-1.824967,3.556305
		c-0.482347,0.517914-1.153553,1.035828-2.013165,1.553772c1.719609-0.258911,3.544332-1.245026,5.473788-2.958557
		c0.104698-0.079498,0.199475-0.11438,0.283185-0.10434c0.084058,0.01001,0.125791,0.054626,0.125791,0.134491
		c0,0.079498-0.041733,0.159271-0.125791,0.238892c-2.30707,2.072021-4.45699,3.108215-6.449515,3.108215
		C2.212344,429.520477,2.17002,429.520477,2.128287,429.520477z"/>
	<path class="st1" d="M0.953781,421.152832c0.02064,0.039673,0.031361,0.079498,0.031361,0.119293
		c0,0.040039-0.03686,0.049713-0.110301,0.030029c-0.073337-0.019989-0.120534-0.049774-0.141523-0.089966
		c-0.146813-0.298706-0.346045-0.44809-0.597869-0.44809c-0.754915,0-2.107943,1.474274-4.058388,4.422791
		c-1.216587,1.872986-2.233733,3.197845-3.051614,3.974731c-0.419695,0.398621-0.912414,0.677612-1.478818,0.836975
		c-0.566369,0.159393-0.975031,0.238892-1.226854,0.238892c-0.251616,0-0.451091-0.029724-0.59787-0.089508
		c0.335638-0.458405,0.721258-1.190033,1.069809-2.226563c0.35311-1.050385,0.648512-1.949524,0.865216-2.719208
		c0.220116-0.781555,0.387883-1.628479,0.366581-1.628479c-0.913911,1.541382-4.49291,7.572357-6.490587,6.565826
		c-0.063416-0.031616,0.039123,0.040161-0.021649-0.009064c-0.090914-0.073639-0.056909-0.12384,0.091124-0.111511
		c1.454871,0.120911,3.200688-1.993774,5.206441-5.130463c0.605944-0.947571,1.154875-1.899323,1.178161-1.942688
		c0.122483-0.228546,0.152243-0.473297,0.141522-0.702515c-0.010581-0.228973-0.06293-0.378357-0.157046-0.448181
		c-0.09443-0.069763-0.131255-0.154541-0.109954-0.254089c0.020676-0.238892,0.199162-0.298706,0.534801-0.179047
		c0.733822,0.318756,1.13246,0.776825,1.195529,1.374664c0.062721,0.298706,0.094081,0.712128,0.094081,1.240143
		c0,0.527924-0.104697,1.349792-0.314545,2.465485c-0.209882,1.155487-0.608485,2.151581-1.195633,2.988312
		c0.944018-0.57785,2.02935-2.017029,3.256344-4.318268c1.22689-2.301056,2.186536-3.770447,2.878695-4.407959
		c0.2938-0.279022,0.660834-0.418365,1.101099-0.418365C0.187797,420.286011,0.701957,420.574677,0.953781,421.152832"/>
	<path class="st1" d="M-11.299001,418.134125c0.167768,0.119537,0.251824,0.328735,0.251824,0.62793
		c0,0.298706-0.173336,0.617462-0.519276,0.956177c-0.345941,0.338531-0.739427,0.507965-1.179658,0.507965
		c-0.146778,0-0.293905-0.059845-0.44037-0.179443c-0.146779-0.119324-0.220221-0.318848-0.220221-0.597412
		c0-0.279022,0.157151-0.597778,0.471731-0.95636c0.314545-0.358856,0.702914-0.538025,1.164238-0.538025
		C-11.623953,417.954956-11.466871,418.014893-11.299001,418.134125"/>
	<path class="st1" d="M-14.226181,418.80658c-0.031361,0.308746-0.173022,0.592896-0.424847,0.851929
		c-0.251476,0.258972-0.487254,0.418304-0.707718,0.478119c-0.22022,0.059845-0.403858,0.089569-0.550636,0.089569
		c-0.146675,0-0.293453-0.059845-0.440231-0.179443c-0.147161-0.119324-0.220255-0.318848-0.220255-0.597412
		c0-0.279022,0.136198-0.577789,0.408663-0.896484c0.356626-0.398743,0.68739-0.5979,0.991215-0.5979
		c0.304312,0,0.545207,0.064667,0.723555,0.194366C-14.268262,418.278656-14.194577,418.497864-14.226181,418.80658"/>
	<path class="st1" d="M-17.498711,425.455933c-0.220116,0.318756-0.487463,0.677612-0.802042,1.076019
		c-0.31465,0.398254-0.645067,0.82663-0.991009,1.285034c-0.346148,0.45813-0.519171,0.791718-0.519171,1.000885
		c0,0.209198,0.105045,0.314026,0.314579,0.314026c0.377615,0,0.933403-0.318817,1.667574-0.956329l1.006739-0.926605
		c1.027519-1.055908,1.882572-2.00708,2.563803-2.853851c0.681822-0.84671,1.117041-1.359741,1.305796-1.539154
		c0.335672-0.378326,0.702915-0.577789,1.101204-0.597534c0.629126,0,1.205867,0.219208,1.730294,0.657349
		c-0.125791,0.179382-0.330417,0.438416-0.613602,0.777222c-0.283184,0.338379-0.56616,0.68219-0.849345,1.030975
		c-0.283219,0.348541-0.608484,0.752014-0.975065,1.210052c-0.367242,0.458557-0.687391,0.887512-0.959507,1.285217
		c-0.426134,0.622955-0.752653,0.853241-1.035628,1.623291c-0.32095,0.873566-0.190008,0.997955,0.1339,1.232361
		c0.116671,0.084015,0.08371,0.149384-0.062721,0.149384c-0.042081,0-0.082456-0.015198-0.126138-0.029724
		c-0.79463-0.263489-1.375618-0.46524-1.478367-1.261597c-0.072432-0.560516,0.10435-1.514648,0.775557-2.849457
		c-2.286083,2.749695-4.121422,4.124268-5.50581,4.124268c-1.048857,0-1.572901-0.468414-1.572901-1.404724
		c0-0.338501,0.109919-0.83667,0.330173-1.494293c0.220116-0.657288,1.242727-1.982147,3.06745-3.97467
		c0.251511-0.258911,0.377546-0.478119,0.377546-0.657288c0-0.35141-0.558643-0.409882-0.880636-0.145203
		c-0.202435,0.166565-0.524393-0.043884-0.181341-0.312561c0.501385-0.392853,0.874231-0.452301,1.313557-0.468781
		c0.754602-0.028412,1.26932,0.269043,1.541782,0.806885c0.104803,0.19928,0.157152,0.458191,0.157152,0.776947
		c0,0.318817-0.08371,0.672455-0.251476,1.061035C-17.084236,424.783478-17.27849,425.137177-17.498711,425.455933"/>
	<path class="st1" d="M-30.710094,427.308746c-0.566055,1.315277-0.849239,2.420929-0.849239,3.317474
		c0,0.896454,0.136057,1.494232,0.408627,1.792938c0.063068,0.079559,0.073338,0.134552,0.031708,0.164215
		c-0.04208,0.03006-0.073441,0.044891-0.094429,0.044891s-0.052349-0.009888-0.094429-0.029938
		c-0.671207-0.537689-1.048717-1.125488-1.132565-1.762939c-0.041977-0.219208-0.062931-0.458527-0.062931-0.717499
		c0-1.155487,0.356522-2.579895,1.069704-4.273376c-1.04875,0.996155-1.59413,1.374725-1.635897,1.135742
		c0.020779-0.179413,0.167801-0.383789,0.440369-0.61261c0.272602-0.229218,0.891321-0.901703,1.856327-2.017426
		c2.097328-4.422791,4.845013-8.118683,8.24267-11.087311c1.761656-1.553741,3.355787-2.330963,4.781908-2.330963
		c1.174541,0,1.856467,0.458466,2.045222,1.374634c0.041976,0.139709,0.06272,0.289032,0.06272,0.448456
		c0,1.693451-1.782642,3.685638-5.348415,5.976868c-1.23761,0.796936-2.369827,1.404724-3.397902,1.823029
		c-0.251476,0.09967-0.398254,0.084778-0.440336-0.044922c-0.041628-0.129181,0.06307-0.244049,0.31465-0.343658
		c0.964659-0.418304,2.065863-1.045868,3.303438-1.882538c1.23761-0.837036,2.349186-1.748474,3.334833-2.734467
		c0.986099-0.98642,1.478817-1.748383,1.478817-2.286438c0-0.338531-0.199474-0.507874-0.597765-0.507874
		c-0.398394,0-0.975378,0.219208-1.730293,0.657532c-2.09757,1.215393-4.394373,3.346924-6.8902,6.395325
		c-1.551945,1.892578-2.831497,3.625793-3.838236,5.199951c1.46841-1.852814,2.978485-3.078217,4.530745-3.675964
		c0.587044-0.199188,1.079763-0.298706,1.478365-0.298706c0.398394,0,0.744682,0.059784,1.038483,0.179016
		c0.565813,0.239349,0.848997,0.637604,0.848997,1.195679c0,0.996033-0.618509,1.932373-1.85577,2.809143
		c-0.713497,0.47818-1.525911,0.821869-2.438326,1.031036c-0.912659,0.209198-1.599388,0.313538-2.06106,0.313538
		c-0.46101,0-0.848927-0.059448-1.16382-0.179108c0.374344,0.793732,0.757074,1.158691,1.211018,1.732941
		c0.322308,0.40799,4.480032,5.237091,8.459236,7.398438c4.410802,2.395935,7.012021,1.896454,9.509204-1.549286
		c0.448132-0.61853,0.229931,0.223083,0.224118,0.237305C-13.053589,442.63739-27.679121,434.922852-30.710094,427.308746
		 M-23.757174,423.304352c0-0.697388-0.346254-1.045929-1.038136-1.045929c-0.79689,0-1.683409,0.418365-2.65844,1.255035
		c-0.975414,0.836761-1.69347,1.524109-2.155176,2.062134c0.042082,0.099548,0.126139,0.248871,0.251616,0.448303
		c0.251823,0.139374,0.540159,0.209198,0.865078,0.209198c0.324951,0,0.854843-0.094666,1.588772-0.284088
		c0.734169-0.189209,1.442202-0.527954,2.123674-1.015869C-24.097858,424.444946-23.757174,423.902191-23.757174,423.304352z"/>
	<path class="st1" d="M-43.860947,428.384735c-0.020748-0.020111-0.031361-0.049835-0.031361-0.089569
		c0-0.0401,0.036858-0.059875,0.109848-0.059875c0.073788,0,0.12088,0.039825,0.141663,0.119659
		c0.377613,0.796997,0.996365,1.195251,1.856327,1.195251c1.069809,0,2.002895-0.498138,2.800137-1.494293
		c0.587151-0.737152,1.106075-1.509155,1.557064-2.316101c0.450951-0.806671,0.828564-1.449402,1.132877-1.92749
		c0.304173-0.478241,0.775902-1.016205,1.415646-1.613647c0.639496-0.597748,1.22184-0.966339,1.746128-1.105713
		c-0.125999-0.059784-0.335533-0.089874-0.629436-0.089874c-0.293591,0-0.843777,0.204376-1.651737,0.612671
		c-0.807262,0.40863-1.609409,0.926544-2.406651,1.554108c-0.796894,0.627472-1.656609,1.339752-2.579639,2.136688
		c-0.922718,0.796997-1.478714,1.265076-1.667572,1.404785c-0.188755,0.139374-0.304211,0.139374-0.346291,0
		c-0.041626-0.139709,0.010719-0.269043,0.157536-0.38858c0.54538-0.438416,1.332005-1.120544,2.359768-2.04718
		c1.027725-0.926331,1.808884-1.603943,2.343895-2.032257c0.534798-0.42807,1.13768-0.796936,1.808887-1.105682
		c0.671204-0.308868,1.174538-0.463043,1.510178-0.463043c0.83897,0,1.35268,0.139343,1.541435,0.418365
		c-0.545071,0.219208-0.990902,0.796997-1.337158,1.733215c-0.34594,0.936279-0.733925,2.022308-1.163925,3.257324
		c-0.429962,1.23526-0.970123,2.20163-1.620338,2.898956c0.54538-0.199097,1.389503-0.662384,2.532787-1.389832
		c1.142799-0.727112,2.155037-1.51886,3.035744-2.37561c0.189102-0.159332,0.3253-0.179443,0.409357-0.059784
		c0,0.039673,0,0.084656,0,0.134491c0,0.049713-0.199511,0.263763-0.598112,0.642303
		c-0.398394,0.378693-0.885857,0.802155-1.462948,1.270386c-0.576775,0.468079-1.294865,0.991211-2.155174,1.568909
		c-1.782642,1.195251-3.570541,1.79303-5.3638,1.79303C-42.209213,430.566345-43.357613,429.839233-43.860947,428.384735"/>
	<path class="st1" d="M-45.46521,425.366425c1.111576-0.577789,1.667225-1.165527,1.667225-1.763306
		c0-0.597473-0.377613-0.896545-1.132771-0.896545c-0.356316,0-0.733582,0.089539-1.132217,0.268921
		c-0.881054,0.378693-1.730293,1.036316-2.548626,1.972534c-1.006741,1.155518-1.510075,2.231384-1.510075,3.227539
		c0,0.37854,0.110195,0.732178,0.330418,1.060699c0.220116,0.328766,0.613602,0.493408,1.179657,0.493408
		c0.986099,0,2.233734-0.493408,3.743805-1.479431c1.510181-0.986115,2.81086-1.977325,3.90131-2.97348
		c0.251823-0.239197,0.377647-0.249237,0.377647-0.030029c0,0.139648-0.062756,0.258911-0.188755,0.358521
		c-0.776043,0.677673-1.295216,1.13092-1.557411,1.359802c-0.26223,0.229309-0.781055,0.637604-1.557304,1.225342
		c-0.776009,0.587799-1.405136,1.001221-1.887447,1.240204c-1.489433,0.737152-2.752941,1.105591-3.791386,1.105591
		c-1.038101,0-1.856087-0.223999-2.45385-0.672089c-0.597767-0.448334-0.896473-1.071075-0.896473-1.868011
		c0-1.69339,0.796543-3.152832,2.391129-4.378143c1.593781-1.225037,3.261147-1.837646,5.002056-1.837646
		c1.174644,0,1.961166,0.238983,2.359421,0.717102c0.167904,0.239258,0.251614,0.493042,0.251614,0.761963
		c0,0.269043-0.094116,0.562897-0.282871,0.881653c-0.377613,0.617615-1.085678,1.160706-2.123779,1.628784
		c-1.037788,0.468231-2.018421,0.702271-2.941452,0.702271c-0.356522,0-0.550533-0.029785-0.582241-0.0896
		c-0.031013-0.059723-0.004906-0.104706,0.078941-0.13443c0.084057-0.030121,0.199127-0.044952,0.345905-0.044952
		C-47.583767,426.203094-46.598087,425.924011-45.46521,425.366425"/>
	<path class="st1" d="M7.635141,418.239532c0.111554,0.031403,0.273717,0.103088,0.28569,0.271912
		c0.081203,1.145477-0.558955,1.396576-1.52786,1.948181c-0.81078,0.462006-1.426678,0.593658-1.52887,0.490143
		c-0.028193-0.052979-0.019387-0.137085,0.069439-0.205627l0.27772-0.214417c0.977328-0.754547,1.1216-1.1745,1.03723-1.387604
		c-0.155236-0.390106-0.467171-0.606537-0.527386-0.653015c-0.059449-0.045898-0.062407-0.085022-0.0071-0.114166
		c0.055899-0.029327,0.276154-0.083771,0.661181-0.163269C6.759901,418.132477,7.180187,418.141937,7.635141,418.239532"/>
	<path class="st1" d="M4.592543,418.239532c0.11152,0.031403,0.273822,0.103088,0.285795,0.271912
		c0.081099,1.145477-0.55906,1.396576-1.527965,1.948181c-0.810814,0.462006-1.426678,0.593658-1.52887,0.490143
		c-0.028193-0.052979-0.019387-0.137085,0.069439-0.205627l0.27772-0.214417c0.977328-0.754547,1.1216-1.1745,1.037195-1.387604
		c-0.155202-0.390106-0.467136-0.606537-0.527247-0.653015c-0.059554-0.045898-0.062408-0.085022-0.007205-0.114166
		c0.056003-0.029327,0.276119-0.083771,0.661182-0.163269C3.717302,418.132477,4.137589,418.141937,4.592543,418.239532"/>
</g>
</svg>
