<?xml version="1.0" encoding="utf-8"?>
<!-- Generator: Adobe Illustrator 19.1.1, SVG Export Plug-In . SVG Version: 6.00 Build 0)  -->
<svg version="1.1" id="Layer_1" xmlns="http://www.w3.org/2000/svg" xmlns:xlink="http://www.w3.org/1999/xlink" x="0px" y="0px"
	 viewBox="0 0 161.05452 34.577988" style="enable-background:new 0 0 161.05452 34.577988;" xml:space="preserve">
<style type="text/css">
	.st0{fill:#F6B2B6;}
	.st1{fill:#9D9C9C;}
</style>
<g>
	<path class="st0" d="M11.097444,19.097469c3.720703-1.453125,8.201173-2.180176,13.441407-2.180176
		c2.586426,0,5.172363,0.384766,7.758787,1.154297c0.612305-0.598145,1.519531-1.490723,2.722168-2.677246
		c1.202148-1.186035,2.154785-2.120605,2.858398-2.805176c2.041504-1.987793,3.708984-3.451172,5.001953-4.39209
		c2.177734-1.603027,4.173828-2.404297,5.989258-2.404297c0.816406,0,1.56543,0.123047,2.245605,0.368652
		c0.680664,0.245605,1.088867,0.437988,1.225098,0.577148s0.204102,0.219238,0.204102,0.240234
		c0,0.021484-0.022949,0.059082-0.067871,0.112305c-0.045898,0.053711-0.11377,0.026855-0.204102-0.080078
		c-0.431152-0.384766-1.270996-0.577148-2.518066-0.577148c-2.109863,0-4.333496,0.865723-6.669922,2.59668
		c-1.678711,1.282227-3.074219,2.452637-4.185547,3.510742s-2.274414,2.180176-3.487793,3.366211
		c-1.213867,1.186035-2.036133,1.98291-2.466797,2.388672c2.268066,0.790527,3.504883,1.827148,3.708984,3.109375
		c0.022461,0.128418,0.01709,0.214355-0.01709,0.256836c-0.03418,0.042969-0.07959,0.042969-0.13623,0
		c-0.056641-0.04248-0.09668-0.106934-0.119141-0.192383c-0.181641-0.405762-0.816406-0.726563-1.905273-0.961914
		c-0.975586-0.213379-2.098633-0.373535-3.369139-0.480957c-4.605469,4.189453-8.677246,6.850586-12.21582,7.98291
		c-1.928711,0.641113-3.754884,0.961914-5.479005,0.961914c-3.085449,0-5.223145-0.432617-6.414062-1.29834
		s-1.786621-1.821777-1.786621-2.869629c0-0.405762,0.07959-0.822266,0.238281-1.25
		C6.129671,21.801571,8.012483,20.315731,11.097444,19.097469z M28.145784,19.899227
		c-3.01709,0-6.192871,0.299316-9.527832,0.897461c-5.126954,0.85498-8.461915,2.126953-10.004395,3.814941
		c-0.476563,0.534668-0.714355,1.037109-0.714355,1.506836c0,0.556152,0.317382,1.058105,0.952636,1.506836
		c0.748535,0.53418,2.046875,0.801758,3.895996,0.801758s3.850587-0.288574,6.006349-0.865723
		c3.220703-0.94043,7.055176-3.473145,11.501465-7.598145C29.552523,19.920712,28.848909,19.899227,28.145784,19.899227z
		 M39.409454,30.318661c0.044922,0.020996,0.067871,0.063965,0.067871,0.12793
		c-0.04541,0.149414-0.13623,0.181641-0.271973,0.096191c-1.973633-1.303711-2.960449-3.216309-2.960449-5.73877
		c0-1.046875,0.221191-2.164063,0.663574-3.350098s1.22998-2.612793,2.364746-4.280273
		c1.134277-1.666992,2.234375-3.109375,3.300781-4.327637c1.065918-1.218262,2.092773-2.356445,3.07959-3.414551
		s1.502441-1.629395,1.54834-1.715332c0.271973-0.384766,0.453613-0.341797,0.544434,0.128418
		c0.022461,0.149902,0.03418,0.320313,0.03418,0.512695s-0.057129,0.36377-0.17041,0.513184
		c-1.406738,1.624512-2.768066,3.462402-4.083496,5.51416c-2.200684,3.462402-3.776855,6.615234-4.72998,9.458008
		c-0.362793,1.132813-0.544434,2.308105-0.544434,3.526367S38.63797,29.570126,39.409454,30.318661z"/>
	<path class="st0" d="M50.264435,20.283504c0.317383-0.341309,0.476563-0.608887,0.476563-0.80127
		s-0.209961-0.288574-0.629883-0.288574s-1.083496,0.374023-1.990234,1.12207
		c-0.839844,0.684082-1.85498,1.827637-3.045898,3.430664s-2.053223,2.687988-2.585938,3.253906
		c-0.533203,0.565918-1.003906,0.849609-1.412109,0.849609c-0.04541,0-0.090332,0-0.13623,0
		c-0.589844,0-1.167969-0.224609-1.735352-0.67334c0.135742-0.192383,0.464844-0.608887,0.986816-1.250488
		c1.156738-1.324707,2.166016-2.607422,3.02832-3.847168c-0.975586,0.919434-1.803223,1.635254-2.483887,2.147949
		c-0.226563,0.171387-0.357422,0.182129-0.391602,0.032227c-0.033691-0.149414,0.01709-0.283203,0.15332-0.400879
		c0.13623-0.117188,0.363281-0.30957,0.680664-0.57666s0.527344-0.443359,0.629395-0.529297
		c0.102051-0.084961,0.294434-0.250977,0.578613-0.49707c0.283203-0.245117,0.493164-0.443359,0.629395-0.592773
		c0.634766-0.705566,1.100098-1.303711,1.39502-1.79541c0.113281-0.256348,0.164551-0.507324,0.15332-0.753418
		c-0.011719-0.245605-0.068359-0.405762-0.17041-0.480957c-0.102051-0.074707-0.141602-0.165527-0.118652-0.272461
		c0-0.170898,0.090332-0.256348,0.271973-0.256348c0.090332,0,0.192383,0.021484,0.306152,0.063965
		c0.703125,0.299316,1.055176,0.892578,1.055176,1.779297c0,0.887207-0.204102,1.833008-0.612793,2.837402
		c0.884766-1.090332,1.553711-1.870117,2.007813-2.340332c1.179199-1.239258,2.336426-1.859863,3.470703-1.859863
		c1.111328,0,1.769531,0.449219,1.973633,1.34668c0.022461,0.128418,0.03418,0.326172,0.03418,0.593262
		c0,0.267578-0.10791,0.625-0.323242,1.07373c-0.21582,0.449219-0.720215,1.186523-1.51416,2.212402
		c-0.794434,1.025879-1.253906,1.672363-1.378418,1.939453c-0.125,0.267578-0.164551,0.464844-0.119141,0.593262
		s0.147461,0.203125,0.306641,0.224609c0.271973,0.042969,0.736816-0.128418,1.39502-0.513184
		c0.929688-0.619629,2.131836-1.570801,3.606934-2.853516c0.249512-0.234863,0.374512-0.213379,0.374512,0.064453
		c0,0.106934-0.057129,0.213867-0.17041,0.320313c-2.200684,1.923828-3.833984,3.121094-4.899902,3.59082
		c-1.248047,0.598145-2.223633,0.694336-2.92627,0.288574c-0.431641-0.256348-0.646973-0.614258-0.646973-1.074219
		c0-0.458984,0.090332-0.923828,0.272461-1.394531C47.167755,23.906551,48.336212,22.335751,50.264435,20.283504z"/>
	<path class="st0" d="M64.454376,25.990536c-0.431152,1.111328-0.646484,2.019531-0.646484,2.725098
		c0,0.705078,0.158203,1.239258,0.476074,1.603027c0.068359,0.084961,0.07959,0.144043,0.03418,0.17627
		c-0.045898,0.031738-0.07959,0.047852-0.102051,0.047852c-0.022949,0-0.056641-0.010742-0.102051-0.031738
		c-0.726074-0.556152-1.088867-1.384277-1.088867-2.484863s0.238281-2.366699,0.714355-3.799316
		c-0.930176,1.133301-1.849121,2.062988-2.756348,2.789551c-1.088867,0.854492-2.200684,1.282227-3.334473,1.282227
		c-0.726563,0-1.406738-0.22998-2.041992-0.689453c-0.635254-0.458984-0.952637-1.212402-0.952637-2.259766
		c-0.022949-0.513184,0.079102-1.100586,0.306152-1.763672c-0.453613,0.384766-0.742676,0.620117-0.867676,0.705566
		c-0.124512,0.085449-0.209473,0.085449-0.254883,0s-0.068359-0.165527-0.068359-0.240723
		c0-0.074707,0.07373-0.170898,0.221191-0.288574c0.147949-0.117188,0.936035-0.902344,2.365234-2.356445
		c0.838867-0.875977,1.837402-1.55957,2.994141-2.051758c1.157227-0.491211,2.257324-0.737305,3.300781-0.737305
		c0.953125,0,1.650391,0.155273,2.092773,0.464844c0.442383,0.310059,0.663574,0.700195,0.663574,1.17041
		c0.816895-1.624023,1.695801-3.168457,2.637207-4.632813c0.941406-1.463867,1.672852-2.473633,2.194824-3.029785
		c0.566895-0.598145,1.281738-0.897461,2.144043-0.897461c0.861816,0,1.564941,0.224121,2.109863,0.67334
		c-0.476563,0.277832-1.407227,1.197266-2.790527,2.756836c-1.384277,1.560547-2.733887,3.233398-4.049316,5.017578
		C66.337189,21.924129,65.270782,23.874325,64.454376,25.990536z M64.726349,19.930965
		c0-0.427246-0.283691-0.641113-0.850586-0.641113c-0.294922,0-0.680664,0.085449-1.156738,0.256348
		c-1.066895,0.384766-2.121582,1.133301-3.165039,2.244141c-1.292969,1.389648-1.939453,2.714844-1.939453,3.975586
		c0,0.748535,0.260742,1.197266,0.782715,1.34668c0.113281,0.042969,0.226563,0.063965,0.340332,0.063965
		c0.929688,0,2.313965-0.875977,4.151367-2.628906c0.499023-0.44873,0.918945-0.929688,1.259277-1.442871
		c0.181152-0.491211,0.419434-1.057617,0.714355-1.699219c-0.204102,0.128418-0.369141,0.144531-0.493164,0.04834
		c-0.125-0.096191-0.097168-0.30957,0.084961-0.641113C64.635529,20.481747,64.726349,20.187313,64.726349,19.930965z"/>
	<path class="st0" d="M74.424591,19.386044c-0.930176,0.897461-1.707031,2.035645-2.331055,3.414551
		c-0.624023,1.378418-0.935547,2.345703-0.935547,2.901367c0,0.556152,0.232422,0.833496,0.697754,0.833496
		c0.464355,0,1.23584-0.320801,2.313477-0.961914s2.308105-1.549316,3.692383-2.725098
		c0.294434-0.256348,0.442383-0.224121,0.442383,0.096191c0,0.042969-0.022949,0.085938-0.068359,0.128418
		c-1.088867,0.897461-2.007324,1.634766-2.755859,2.211914c-0.749023,0.577148-1.639648,1.12793-2.671387,1.651367
		c-1.032715,0.523926-1.877441,0.785156-2.535156,0.785156c-0.816895,0-1.423828-0.171387-1.820313-0.512695
		c-0.397461-0.341797-0.595703-0.71582-0.595703-1.12207c0-0.769531,0.147461-1.378906,0.442383-1.827637
		c0.294434-0.44873,0.793945-1.068359,1.49707-1.859375c-0.25,0.192383-0.641113,0.512695-1.173828,0.961914
		c-0.533203,0.44873-0.901855,0.748047-1.105957,0.897461c-0.204102,0.149902-0.306152,0.107422-0.306152-0.128418
		c0-0.148926,0.181641-0.362793,0.544434-0.641113c0.362305-0.277344,1.150879-0.98291,2.364746-2.115723
		c1.213379-1.132813,2.041992-1.806152,2.484375-2.02002c0.442383-0.213379,0.804688-0.320313,1.088867-0.320313
		c0.283203,0,0.493164,0.037598,0.629395,0.112305S74.49295,19.301083,74.424591,19.386044z M74.866974,17.686825
		c-0.25-0.192383-0.352051-0.469727-0.306152-0.833496c0.044922-0.363281,0.249512-0.748047,0.612305-1.154297
		c0.362793-0.405762,0.851074-0.608887,1.463379-0.608887c0.181152,0,0.374512,0.080078,0.578613,0.240234
		s0.283203,0.427734,0.238281,0.801758c-0.045898,0.374023-0.227051,0.726563-0.544434,1.057617
		c-0.318359,0.331543-0.675293,0.54541-1.072266,0.641602C75.439728,17.927059,75.116486,17.879208,74.866974,17.686825z"/>
</g>
<g>
	<path class="st1" d="M87.117462,27.176571c-2.087402,0.469727-3.777344,0.598145-5.070313,0.384766
		c-2.336914-0.384766-3.822754-1.154297-4.45752-2.308105c-0.227051-0.405762-0.340332-0.76416-0.340332-1.074219
		c0-0.30957,0.021973-0.561035,0.067871-0.753418c0.13623-0.662109,0.572754-1.367676,1.310059-2.116211
		c0.736816-0.747559,1.763672-1.463379,3.07959-2.147949l1.769531-0.929688c0.408203-3.547363,2.778809-6.58252,7.111816-9.10498
		c1.70166-1.004395,3.130859-1.506836,4.287598-1.506836c0.385742,0,0.737305,0.053711,1.055176,0.160156
		c0.748535,0.256836,1.122559,0.716797,1.122559,1.378906c0,1.153809-0.828125,2.351074-2.483887,3.59082
		c-0.907715,0.705078-1.894531,1.357422-2.960449,1.955566l-5.920898,3.333984c0,0.149902,0,0.464844,0,0.945801
		s0.102051,1.117188,0.306152,1.907715c1.723633-0.918945,3.606934-1.539063,5.648926-1.859375
		c0.998047-0.170898,1.871582-0.256836,2.620117-0.256836c1.859863,0,2.914551,0.556152,3.164551,1.66748
		c0.022461,0.149414,0.03418,0.288574,0.03418,0.416504c0,0.727051-0.419922,1.48584-1.259277,2.276367
		c-1.474609,1.389648-3.947266,2.586426-7.417969,3.59082c1.383301,1.773926,2.90332,2.981445,4.55957,3.622559
		c1.111328,0.449219,1.973633,0.67334,2.586426,0.67334c0.612305,0,1.037598-0.123047,1.275879-0.368652
		c0.238281-0.246094,0.357422-0.502441,0.357422-0.769531c0-0.267578-0.15918-0.58252-0.476563-0.945801
		c-0.680664-0.833496-1.679199-1.25-2.994629-1.25c-0.135742,0-0.345703,0.015625-0.629395,0.047852
		s-0.425293,0.016113-0.425293-0.047852c-0.067871-0.171387,0.090332-0.288574,0.476563-0.353027
		c0.612305-0.084961,1.179199-0.12793,1.701172-0.12793c1.45166,0,2.484375,0.373535,3.09668,1.12207
		c0.317383,0.341309,0.476563,0.688965,0.476563,1.041992c0,0.352539-0.13623,0.709961-0.408691,1.07373
		c-0.521973,0.726563-1.36084,1.090332-2.518066,1.090332c-0.907227,0-1.860352-0.203613-2.858398-0.609375
		C90.667755,29.986629,88.704865,28.736629,87.117462,27.176571z M80.379669,26.695614
		c0.726074,0.27832,1.519531,0.416992,2.382324,0.416992c1.40625,0,2.710449-0.117188,3.913086-0.352539
		c-1.157227-1.26123-1.985352-2.51123-2.483887-3.751465c-0.771484,0.428223-1.236816,0.72168-1.395508,0.881836
		s-0.25,0.235352-0.271973,0.224609c-0.022949-0.010742-0.022949-0.080566,0-0.208496
		c0.067871-0.469727,0.498535-1.015137,1.292969-1.635254l0.067871-0.031738
		c-0.317871-1.004395-0.476074-1.966309-0.476074-2.885742l-0.986816,0.577148
		c-1.248047,0.8125-2.194824,1.656738-2.841797,2.532715c-0.646484,0.876953-0.969727,1.699219-0.969727,2.46875
		S79.199982,26.289852,80.379669,26.695614z M92.511017,12.942196c1.031738-0.85498,1.54834-1.629883,1.54834-2.324707
		c0-0.694336-0.38623-1.041992-1.157227-1.041992c-0.884766,0-1.939453,0.395996-3.164551,1.186523
		c-2.336914,1.496094-3.641113,3.59082-3.913086,6.283691c0.408203-0.234863,1.100098-0.609375,2.075684-1.12207
		C89.941681,14.790829,91.478302,13.797176,92.511017,12.942196z M96.645294,21.053036
		c0-0.598145-0.658203-0.897461-1.973633-0.897461c-2.223633,0-5.013672,0.641113-8.371094,1.92334
		c0.476563,1.518066,1.190918,2.928711,2.144043,4.231934c2.767578-0.812012,5.024414-1.934082,6.771484-3.366211
		C96.16922,22.175106,96.645294,21.545223,96.645294,21.053036z"/>
	<path class="st1" d="M98.482697,28.65118c0-1.025879,1.633301-3.782715,4.900391-8.271484
		c-0.11377-0.384766-0.17041-0.737305-0.17041-1.057617c0-0.320801,0.283691-0.694336,0.851074-1.12207
		c0.566406-0.427734,0.997559-0.641602,1.292969-0.641602c0.044922,0,0.079102,0,0.102051,0
		c1.338379-1.730957,2.529297-3.194824,3.572754-4.39209c1.043457-1.196777,1.655762-1.79541,1.837891-1.79541
		c0.181152,0,0.323242,0.069824,0.425293,0.208496c0.102051,0.13916,0.152832,0.283691,0.152832,0.432617
		c-1.814941,2.116211-3.674805,4.40332-5.580566,6.86084l0.068359,0.224609l1.224609-0.096191
		c1.724121-0.106445,3.595703-0.475586,5.614746-1.105957s3.675293-1.351563,4.968262-2.164063
		c2.676758-1.709961,4.015625-3.280762,4.015625-4.712891c0-0.619629-0.442383-1.143066-1.327148-1.570801
		c-0.884766-0.427246-2.269043-0.641113-4.151855-0.641113c-1.883301,0-4.44043,0.432617-7.67334,1.29834
		c-3.232422,0.865723-5.484375,1.811035-6.754395,2.837402c-0.363281,0.299316-0.493652,0.53418-0.391602,0.705078
		c0.102051,0.171387,0.119141,0.267578,0.05127,0.288574c-0.068359,0.021484-0.17041-0.010742-0.306152-0.096191
		c-0.476563-0.256348-0.777344-0.577148-0.901855-0.961914c-0.125-0.384766-0.1875-0.67334-0.1875-0.865723
		s0.056641-0.331055,0.17041-0.416504c0.748535-1.025879,2.421387-1.992676,5.019043-2.901367
		c2.597656-0.908203,4.996582-1.506836,7.197266-1.79541c2.200195-0.288574,3.828125-0.433105,4.882813-0.433105
		c1.055176,0,1.928223,0.064453,2.620117,0.192383c0.691895,0.128418,1.310547,0.416992,1.85498,0.865723
		c0.838867,0.662598,1.258789,1.592773,1.258789,2.789063c0,1.175781-0.465332,2.266113-1.39502,3.270508
		c-0.930664,1.004883-2.126953,1.907227-3.589844,2.708984c-1.463379,0.80127-3.23877,1.522949-5.325684,2.164063
		c-2.427734,0.748535-4.662109,1.12207-6.703613,1.12207c0.725586,1.709961,2.183105,3.436035,4.372559,5.177734
		c2.188965,1.742188,3.998535,2.612793,5.427734,2.612793c0.566895,0,1.065918-0.128418,1.49707-0.384766
		c0.430664-0.256348,0.680664-0.577148,0.748535-0.961914c0-0.106445,0.056641-0.138672,0.17041-0.096191
		c0.044922,0.064453,0.067871,0.117676,0.067871,0.160645c-0.181641,1.431641-1.474609,2.147949-3.879395,2.147949
		c-1.383789,0-2.824219-0.342285-4.321289-1.025879c-1.497559-0.684082-2.773438-1.539063-3.828125-2.564941
		c-1.055176-1.025879-1.888672-2.083984-2.501465-3.173828c-2.404785,3.291504-3.890625,5.610352-4.45752,6.957031
		c-0.13623,0.341309-0.323242,0.512695-0.561523,0.512695S98.482697,28.843563,98.482697,28.65118z"/>
	<path class="st1" d="M124.956329,26.920223c-1.52002,0.726074-2.847168,1.089844-3.981445,1.089844
		c-0.952637,0-1.599121-0.299316-1.939453-0.897461c-0.181152-0.299316-0.271973-0.641113-0.271973-1.025879
		c0-0.876465,0.215332-1.731445,0.646484-2.564941c-0.29541,0.277832-0.578613,0.502441-0.851074,0.67334
		c-0.226074,0.192383-0.339844,0.171387-0.339844-0.064453c0-0.148926,0.19873-0.384277,0.595215-0.705078
		s1.003906-0.860352,1.820801-1.619141c0.816406-0.758301,1.462891-1.330566,1.939453-1.715332
		c1.383301-1.089844,2.84668-1.634766,4.389648-1.634766c0.566895,0,1.14502,0.13916,1.735352,0.416504
		c0.861816,0.384766,1.292969,1.090332,1.292969,2.116211c0,1.239746-0.658203,2.511719-1.973633,3.814941
		c-0.521973,0.556152-1.247559,1.111816-2.177734,1.66748c1.859863-0.277832,3.833496-1.335938,5.920898-3.174316
		c0.113281-0.084961,0.215332-0.122559,0.306152-0.111816s0.13623,0.059082,0.13623,0.144043
		c0,0.085449-0.04541,0.171387-0.13623,0.256348c-2.495605,2.223145-4.820801,3.334473-6.975586,3.334473
		C125.046661,26.920223,125.00174,26.920223,124.956329,26.920223z M128.257111,23.554012
		c0.566895-0.812012,0.850586-1.501465,0.850586-2.067871s-0.260742-0.999023-0.782227-1.298828
		c-0.29541-0.234863-0.635742-0.352539-1.020996-0.352539c-1.384277,0-2.660156,0.513184-3.828125,1.539063
		c-1.168945,1.025879-1.945801,2.115723-2.331055,3.27002c-0.15918,0.40625-0.238281,0.828613-0.238281,1.266602
		s0.175293,0.748047,0.527344,0.929688c0.351563,0.181641,0.742676,0.272461,1.174316,0.272461
		c0.430664,0,1.054688-0.203125,1.871582-0.609375c-0.045898,0-0.114258-0.020996-0.20459-0.063965
		c-0.271973-0.128418-0.408203-0.299316-0.408203-0.513184c0-0.747559,0.442383-1.506836,1.327148-2.275879
		c0.634766-0.53418,1.28125-0.801758,1.939453-0.801758C127.791779,22.848446,128.16629,23.083797,128.257111,23.554012z"/>
	<path class="st1" d="M144.965118,20.027157c0,1.496582-0.794434,3.121094-2.382324,4.873047
		c-1.179688,1.304199-2.472656,2.266113-3.878906,2.885742c-0.749023,0.320313-1.401367,0.480469-1.957031,0.480469
		c-0.556152,0-1.060547-0.144043-1.51416-0.432617c-0.454102-0.288574-0.680664-0.731934-0.680664-1.330566
		c0-0.598145,0.090332-1.186035,0.272461-1.763184c-0.794434,1.133301-1.417969,1.93457-1.871582,2.404297
		c-0.454102,0.470215-0.884766,0.705566-1.292969,0.705566c-0.04541,0-0.102051,0-0.17041,0
		c-0.589355,0-1.156738-0.224609-1.701172-0.67334c1.474609-1.944824,2.620117-3.526367,3.436523-4.744629
		c-0.521973,0.491699-1.168457,1.036621-1.939453,1.634766c-0.204102,0.149902-0.345703,0.17627-0.425293,0.080078
		c-0.079102-0.096191,0.005859-0.250977,0.255371-0.464844c0.680176-0.533691,1.156738-0.918457,1.429199-1.153809
		c0.884766-0.812012,1.950684-2.137207,3.19873-3.975586c3.470703-5.06543,5.206055-8.20752,5.206055-9.425781
		c0-0.427246-0.227051-0.651855-0.680664-0.67334c-0.04541,0-0.067871-0.020996-0.067871-0.063965
		c0-0.04248,0.022461-0.063965,0.067871-0.063965c1.043457,0.042969,1.644531,0.694824,1.803711,1.955566
		c0,0.085449,0,0.181641,0,0.288574c0,1.666992-1.475098,4.937012-4.423828,9.810059
		c1.134277-1.068359,2.279785-1.816406,3.437012-2.244141c0.566895-0.213379,1.094238-0.320313,1.58252-0.320313
		c0.487305,0,0.946777,0.106934,1.37793,0.320313C144.658478,18.606258,144.965118,19.236629,144.965118,20.027157z
		 M140.268829,19.803036c-0.362793,0-0.816406,0.13916-1.36084,0.416504c-0.975586,0.492188-1.837891,1.282227-2.586426,2.372559
		c-0.884766,1.26123-1.327148,2.46875-1.327148,3.622559c0,0.769531,0.226563,1.271484,0.680664,1.506836
		c0.249512,0.149414,0.561523,0.224609,0.936035,0.224609c0.374023,0,0.844727-0.13916,1.412109-0.416992
		c0.952637-0.44873,1.814453-1.228516,2.585938-2.340332c0.861816-1.260742,1.292969-2.473633,1.292969-3.638672
		C141.90213,20.385555,141.357697,19.803036,140.268829,19.803036z"/>
	<path class="st1" d="M151.701935,19.386044c-0.930176,0.897461-1.707031,2.035645-2.331055,3.414551
		c-0.624023,1.378418-0.935547,2.345703-0.935547,2.901367c0,0.556152,0.232422,0.833496,0.697754,0.833496
		c0.464355,0,1.23584-0.320801,2.313477-0.961914s2.308105-1.549316,3.692383-2.725098
		c0.294434-0.256348,0.442383-0.224121,0.442383,0.096191c0,0.042969-0.022949,0.085938-0.068359,0.128418
		c-1.088867,0.897461-2.007324,1.634766-2.755859,2.211914c-0.749023,0.577148-1.639648,1.12793-2.671387,1.651367
		c-1.032715,0.523926-1.877441,0.785156-2.535156,0.785156c-0.816895,0-1.423828-0.171387-1.820313-0.512695
		c-0.397461-0.341797-0.595703-0.71582-0.595703-1.12207c0-0.769531,0.147461-1.378906,0.442383-1.827637
		c0.294434-0.44873,0.793945-1.068359,1.49707-1.859375c-0.25,0.192383-0.641113,0.512695-1.173828,0.961914
		c-0.533203,0.44873-0.901855,0.748047-1.105957,0.897461c-0.204102,0.149902-0.306152,0.107422-0.306152-0.128418
		c0-0.148926,0.181641-0.362793,0.544434-0.641113c0.362305-0.277344,1.150879-0.98291,2.364746-2.115723
		c1.213379-1.132813,2.041992-1.806152,2.484375-2.02002c0.442383-0.213379,0.804688-0.320313,1.088867-0.320313
		c0.283203,0,0.493164,0.037598,0.629395,0.112305S151.770294,19.301083,151.701935,19.386044z M152.144318,17.686825
		c-0.25-0.192383-0.352051-0.469727-0.306152-0.833496c0.044922-0.363281,0.249512-0.748047,0.612305-1.154297
		c0.362793-0.405762,0.851074-0.608887,1.463379-0.608887c0.181152,0,0.374512,0.080078,0.578613,0.240234
		s0.283203,0.427734,0.238281,0.801758c-0.045898,0.374023-0.227051,0.726563-0.544434,1.057617
		c-0.318359,0.331543-0.675293,0.54541-1.072266,0.641602C152.717072,17.927059,152.393829,17.879208,152.144318,17.686825z"/>
</g>
<g>
</g>
<g>
</g>
<g>
</g>
<g>
</g>
<g>
</g>
<g>
</g>
</svg>
