<?xml version="1.0" encoding="utf-8"?>
<!-- Generator: Adobe Illustrator 19.1.1, SVG Export Plug-In . SVG Version: 6.00 Build 0)  -->
<svg version="1.1" id="Layer_1" xmlns="http://www.w3.org/2000/svg" xmlns:xlink="http://www.w3.org/1999/xlink" x="0px" y="0px"
	 viewBox="0 0 1053.48645 76.496178" style="enable-background:new 0 0 1053.48645 76.496178;" xml:space="preserve">
<style type="text/css">
	.st0{fill:none;stroke:#F6B2B6;stroke-width:0.5;stroke-linecap:round;stroke-miterlimit:22.925585;}
	.st1{fill:none;stroke:#878787;stroke-width:0.5;stroke-linecap:round;stroke-miterlimit:22.925585;}
	.st2{fill:#F6B2B6;}
	.st3{fill:#9D9C9C;}
</style>
<line class="st0" x1="-3.000189" y1="63.982708" x2="488.049408" y2="63.982708"/>
<line class="st1" x1="564.592651" y1="63.982708" x2="1053.48645" y2="63.982708"/>
<g>
	<path class="st2" d="M524.841919,22.28587l-4.010254-4.193787c-0.151672-0.159119-0.306946-0.313843-0.463745-0.463806
		c-2.716431-2.597899-6.181519-3.897338-9.646088-3.897338c-3.464783,0-6.929443,1.299438-9.645996,3.897338
		c-0.156677,0.149963-0.312073,0.304688-0.463684,0.463806c-2.677917,2.799988-3.889465,6.305054-3.889465,9.903564
		c0,3.834839,1.382751,7.77771,3.834167,11.075928c1.810181,2.435181,4.585327,4.716003,7.721619,7.293518
		c0.373718,0.307129,0.753845,0.620117,1.136902,0.936584c-4.083191,5.291687-8.729492,10.392517-13.923218,15.307068
		c-0.318359,0.130249-0.658691,0.229858-1.023804,0.292236c-0.404297,0.069153-0.826599,0.095764-1.264282,0.083557
		c-0.389832-0.010498-0.7146,0.296814-0.725098,0.686646c-0.010498,0.389713,0.296814,0.714603,0.686584,0.725101
		c0.539734,0.015259,1.054199-0.017029,1.540894-0.100098c0.494629-0.084534,0.971436-0.223938,1.427795-0.421818
		c0.09082-0.039185,0.168457-0.095703,0.232361-0.163391c0.016968-0.013245,0.037659-0.018311,0.05365-0.033325
		c5.245544-4.959961,9.943787-10.116333,14.080017-15.473267c4.588593,3.843262,9.60141,8.472351,13.202911,15.045593
		c0.0354,0.06488,0.079407,0.121765,0.130432,0.170288l0.020691,0.021606c0.268982,0.282593,0.716858,0.293884,0.999512,0.024902
		c0.145691-0.138916,0.219666-0.325439,0.219666-0.512207h0.001709V22.811138
		C525.075195,22.602764,524.984985,22.415691,524.841919,22.28587z M509.175262,45.274273
		c-3.064819-2.518616-5.776123-4.747437-7.483398-7.044128c-2.271118-3.055359-3.551819-6.698792-3.551819-10.234497
		c0-3.251282,1.089294-6.411865,3.496521-8.929077c0.135193-0.141724,0.274109-0.280334,0.413879-0.413818
		c2.442627-2.33606,5.557312-3.504516,8.671387-3.504516c3.113983,0,6.228973,1.168456,8.671539,3.504516
		c0.139709,0.133484,0.278625,0.272095,0.41394,0.413818l3.703796,3.873535
		c-2.87262,7.179199-6.653442,14.035583-11.290527,20.585754c-0.631134,0.891602-1.280853,1.776794-1.943634,2.657654
		C509.908112,45.878948,509.535492,45.570354,509.175262,45.274273z M511.361542,47.086346
		c0.685516-0.910034,1.358002-1.824646,2.010468-2.746399c4.104431-5.797791,7.543213-11.823242,10.285767-18.085571v34.132263
		C520.078796,54.719463,515.542053,50.584087,511.361542,47.086346z"/>
	<path class="st3" d="M560.614502,62.984539c-0.437622,0.012207-0.859985-0.014404-1.264221-0.083557
		c-0.395508-0.067505-0.765869-0.174316-1.106689-0.322021c-0.045837-0.019775-0.093506-0.020142-0.140564-0.029663
		c-0.01001-0.012634-0.013123-0.028259-0.024109-0.040344c-3.319336-3.63739-6.082031-6.920471-8.120728-9.742065
		c-1.761475-2.437988-2.982178-4.525208-3.55365-6.190369c2.551758-2.291931,4.946106-4.681274,6.944458-7.518555
		c2.38031-3.379822,3.766174-7.351074,3.766174-11.195496c0-3.535095-1.166504-6.962708-3.797302-9.733276
		c-0.027161-0.033203-0.057556-0.063232-0.090149-0.091003c-0.151306-0.157043-0.28833-0.294495-0.409607-0.410522
		c-2.715942-2.597594-6.180908-3.896728-9.645142-3.896728c-3.464478,0-6.92926,1.299133-9.645508,3.896728
		c-0.124695,0.119385-0.266174,0.261108-0.422852,0.424072c-0.014526,0.012817-0.028137,0.026123-0.041443,0.040344
		l-4.012451,4.195496c-0.141724,0.129761-0.231018,0.316406-0.231018,0.52356v40.143433h0.001709
		c0.000305,0.186768,0.073669,0.373291,0.219666,0.512207c0.282593,0.268982,0.73053,0.25769,0.999512-0.024902l0.042786-0.045105
		l-0.00061-0.00061c0.033203-0.034607,0.063049-0.07312,0.089111-0.115601c3.618896-5.838318,8.305725-9.856384,12.81311-13.720886
		c0.771484-0.661377,1.535034-1.319458,2.290527-1.980652c0.678894,1.701111,1.8797,3.71875,3.536987,6.012634
		c2.083984,2.884583,4.878967,6.208496,8.21991,9.86969c0.106995,0.117676,0.247009,0.178894,0.392212,0.206604
		c0.069275,0.085205,0.152283,0.159973,0.259949,0.206421c0.456421,0.19788,0.933228,0.337284,1.427612,0.421818
		c0.486694,0.083069,1.001221,0.115356,1.540894,0.100098c0.389709-0.010498,0.697021-0.335388,0.686523-0.725101
		C561.329102,63.281353,561.004272,62.974041,560.614502,62.984539z M542.065979,48.485394
		c-4.083801,3.501099-8.312256,7.126587-11.828979,12.135071V23.093182l3.850586-4.026611l0.032104-0.036316
		c0.108215-0.111694,0.235779-0.238098,0.382385-0.378113c2.442322-2.335754,5.557007-3.503905,8.670898-3.503905
		c3.113525,0,6.228516,1.168151,8.670593,3.503905c0.161804,0.154846,0.301025,0.293152,0.416138,0.41333l-0.001404,0.001099
		c2.383606,2.492493,3.439514,5.592224,3.439514,8.795898c0,3.551819-1.290039,7.235168-3.50592,10.381287
		c-1.875977,2.663513-4.141052,4.941467-6.564636,7.129883c-0.091675-0.014771-0.1875-0.012146-0.283264,0.011719
		c-0.329895,0.082458-0.533203,0.385803-0.521606,0.712585C543.918518,46.896954,542.996094,47.687969,542.065979,48.485394z"/>
</g>
<g>
</g>
<g>
</g>
<g>
</g>
<g>
</g>
<g>
</g>
<g>
</g>
</svg>
