<?xml version="1.0" encoding="utf-8"?>
<!-- Generator: Adobe Illustrator 19.1.1, SVG Export Plug-In . SVG Version: 6.00 Build 0)  -->
<svg version="1.1" id="Layer_1" xmlns="http://www.w3.org/2000/svg" xmlns:xlink="http://www.w3.org/1999/xlink" x="0px" y="0px"
	 viewBox="0 0 54.5 49" style="enable-background:new 0 0 54.5 49;" xml:space="preserve">
<style type="text/css">
	
		.st0{fill-rule:evenodd;clip-rule:evenodd;fill:#F6B2B6;stroke:#F6B2B6;stroke-width:5.564589;stroke-linecap:round;stroke-linejoin:round;stroke-miterlimit:10;}
	
		.st1{fill-rule:evenodd;clip-rule:evenodd;fill:#B2B2B2;stroke:#B2B2B2;stroke-width:5.564589;stroke-linecap:round;stroke-linejoin:round;stroke-miterlimit:10;}
</style>
<path class="st0" d="M25.606846,12.788591c-0.994759-1.382423-2.180223-2.413505-3.452957-3.113707
	c-1.363667-0.750474-2.827259-1.121449-4.262693-1.138912L17.78352,8.535249v0.001188
	c-2.227604,0-4.383803,0.848282-5.991084,2.446159c-1.612344,1.603147-2.67608,3.963486-2.713126,6.983363l0.000104,0.16358
	c0,8.134832,5.315786,12.252701,10.193326,16.031216c3.758623,2.911633,7.263557,5.626518,8.007988,9.830826l-0.553776,0.096672
	c-0.706816-3.99118-4.127945-6.641376-7.796925-9.483566c-4.982839-3.859945-10.413121-8.066734-10.413121-16.475147
	l0.002015-0.170193c0.038958-3.180048,1.167434-5.674,2.877947-7.374541c1.715473-1.705501,4.014017-2.610927,6.386652-2.610927
	l0.001034,0.001188l0.111034,0.000568h0.002066c1.527248,0.0186,3.081621,0.411689,4.526459,1.206856
	c1.342018,0.738436,2.590879,1.82413,3.637463,3.278629L25.606846,12.788591z"/>
<path class="st1" d="M27.003077,13.747648c1.707569-2.957773,4.198006-4.769038,6.844221-5.552321
	c1.887268-0.55858,3.854107-0.593301,5.672966-0.14746c1.823563,0.446823,3.498943,1.37643,4.798336,2.744489
	c1.627327,1.713613,2.664558,4.110687,2.664558,7.104627c0,8.415026-5.881138,12.621609-11.277576,16.481398
	c-3.974491,2.842968-7.680517,5.493732-8.445148,9.481552l-0.551552-0.105453
	c0.806946-4.207512,4.601738-6.922138,8.671555-9.833153c5.282978-3.778513,11.040161-7.896538,11.040161-16.024343
	c0-2.838988-0.976467-5.104413-2.508572-6.717791c-1.223957-1.288852-2.803699-2.164827-4.52372-2.586333
	c-1.72467-0.422694-3.590912-0.389317-5.382801,0.141002c-2.516064,0.744791-4.886787,2.471992-6.51675,5.294964
	L27.003077,13.747648z"/>
</svg>
