<?xml version="1.0" encoding="utf-8"?>
<!-- Generator: Adobe Illustrator 19.1.1, SVG Export Plug-In . SVG Version: 6.00 Build 0)  -->
<svg version="1.1" id="Layer_1" xmlns="http://www.w3.org/2000/svg" xmlns:xlink="http://www.w3.org/1999/xlink" x="0px" y="0px"
	 viewBox="0 0 54.5 49" style="enable-background:new 0 0 54.5 49;" xml:space="preserve">
<style type="text/css">
	.st0{fill-rule:evenodd;clip-rule:evenodd;fill:#B2B2B2;}
	.st1{fill-rule:evenodd;clip-rule:evenodd;fill:#F6B2B6;}
</style>
<path class="st0" d="M27.465195,14.7892c1.127399-1.953,2.773399-3.149797,4.5219-3.667197
	c1.2486-0.3693,2.550301-0.3926,3.753899-0.0975c1.209499,0.2965,2.321602,0.913899,3.183899,1.821898
	c1.0802,1.1375,1.769302,2.7272,1.769302,4.707999c0,5.5245-3.837502,8.269501-7.358101,10.7878
	c-2.538198,1.8153-4.905399,3.508801-5.3864,6.017099L27.254595,34.2267c0.5341-2.785601,3.013199-4.559,5.671598-6.460501
	c3.377701-2.415899,7.059402-5.049299,7.059402-10.2118c0-1.786099-0.612602-3.2099-1.572701-4.221
	c-0.7673-0.8082-1.758602-1.357798-2.838001-1.622297c-1.085098-0.2659-2.260101-0.2449-3.388298,0.089
	c-1.586,0.469098-3.081202,1.559298-4.109701,3.340598L27.465195,14.7892z"/>
<path class="st0" d="M26.120195,15.1421c-1.029301-1.7824-2.5245-2.8729-4.110001-3.341998
	c-1.128201-0.333899-2.303101-0.354899-3.388201-0.089c-1.079399,0.2645-2.070999,0.814398-2.838299,1.622297
	c-0.9601,1.0111-1.5724,2.4346-1.5724,4.221c0,5.1625,3.6816,7.7959,7.0594,10.2118
	c2.6583,1.901501,5.137501,3.6749,5.671499,6.460501l-0.695,0.132599c-0.4811-2.508299-2.848299-4.201799-5.3864-6.017099
	c-3.520599-2.518299-7.358199-5.2633-7.358199-10.7878c0-1.9808,0.6885-3.5702,1.7691-4.707999
	c0.862599-0.908298,1.9749-1.525397,3.184199-1.821898c1.2036-0.2951,2.505199-0.2718,3.753901,0.0975
	c1.7493,0.5177,3.3951,1.713898,4.5221,3.665797L26.120195,15.1421z"/>
<path class="st0" d="M13.651995,23.726c-1.3153-0.7591-2.121699-1.869101-2.4704-3.0481
	c-0.2492-0.8424-0.264999-1.721701-0.0658-2.534401c0.2005-0.818699,0.6186-1.5716,1.2337-2.155799
	c0.7704-0.7319,1.8453-1.1988,3.1836-1.1988c3.7,0,5.5267,2.553799,7.2028,4.896599
	c1.180599,1.6506,2.282499,3.190701,3.886599,3.498201l-0.1327,0.695099c-1.881599-0.3606-3.063398-2.0126-4.329899-3.7834
	c-1.573801-2.200001-3.289-4.5978-6.6268-4.5978c-1.143001,0-2.052601,0.3901-2.6966,1.002101
	c-0.5148,0.488899-0.865701,1.1213-1.034101,1.8099c-0.1701,0.694199-0.156199,1.446798,0.057301,2.168798
	c0.3004,1.0165,1,1.9757,2.1438,2.6359L13.651995,23.726z"/>
<path class="st0" d="M40.193394,23.1143c1.1437-0.6602,1.8433-1.6194,2.143799-2.6359
	c0.213402-0.722,0.227303-1.4746,0.057301-2.168798c-0.1684-0.688601-0.519398-1.321001-1.0341-1.8099
	c-0.6441-0.612-1.553699-1.002101-2.696598-1.002101c-3.337803,0-5.053101,2.397799-6.6269,4.5978
	c-1.2665,1.7708-2.448202,3.4228-4.329901,3.7834l-0.132601-0.695099c1.604101-0.307501,2.7059-1.847601,3.886499-3.498201
	c1.676199-2.3428,3.502802-4.896599,7.202902-4.896599c1.3382,0,2.413097,0.4669,3.183598,1.1988
	c0.615101,0.584199,1.033199,1.3371,1.233601,2.155799c0.199299,0.8127,0.183399,1.692001-0.0658,2.534401
	c-0.348598,1.178999-1.155098,2.289-2.470299,3.0481L40.193394,23.1143z"/>
<path class="st0" d="M24.368895,24.871201c-0.183399,0.1057-0.2948,0.257399-0.341801,0.4161
	c-0.032598,0.1103-0.034899,0.225399-0.009699,0.330601h0.000299c0.0247,0.100899,0.075399,0.192999,0.1486,0.2624
	c0.091501,0.0868,0.226501,0.142599,0.4002,0.142599c0.5893,0,0.921301-0.4643,1.2257-0.889799
	c0.310699-0.434801,0.6015-0.8402,1.121099-0.939701l0.1327,0.695101c-0.242699,0.046499-0.452999,0.3402-0.677799,0.654499
	c-0.4065,0.568401-0.8501,1.188601-1.801701,1.188601c-0.368799,0-0.669199-0.132401-0.887199-0.3393
	c-0.1735-0.1647-0.292-0.376999-0.348101-0.605499v-0.0014c-0.054399-0.224001-0.050499-0.4666,0.017801-0.697601
	c0.094999-0.321499,0.313599-0.6236,0.6684-0.828299L24.368895,24.871201z"/>
<path class="st0" d="M30.179394,24.259501c0.3549,0.204699,0.573502,0.5068,0.668402,0.828299
	c0.068298,0.231001,0.0723,0.4736,0.017899,0.697601v0.0014c-0.0562,0.2285-0.174599,0.4408-0.348099,0.605499
	c-0.218,0.2069-0.518501,0.3393-0.8873,0.3393c-0.951601,0-1.395201-0.620199-1.801701-1.188601
	c-0.2248-0.314299-0.435099-0.608-0.6777-0.654499l0.132601-0.695101c0.520199,0.099501,0.810499,0.505201,1.121099,0.939701
	c0.304501,0.425499,0.6364,0.889799,1.2257,0.889799c0.1738,0,0.308701-0.055799,0.400299-0.142599
	c0.073101-0.069401,0.123901-0.161501,0.1485-0.2624h0.000299c0.0252-0.105202,0.023001-0.220301-0.0096-0.330601
	c-0.0471-0.158701-0.158499-0.3104-0.3419-0.4161L30.179394,24.259501z"/>
<path class="st0" d="M21.077394,21.441601c-0.6271-0.362001-1.0126-0.8932-1.179501-1.457901
	c-0.119699-0.404499-0.126999-0.8277-0.031199-1.218599c0.097198-0.396601,0.3004-0.762501,0.599199-1.046301
	c0.375-0.355999,0.894899-0.583099,1.538401-0.583099c1.7311,0,2.566799,1.1688,3.3335,2.240299
	c0.496099,0.6933,0.959,1.340801,1.587999,1.461201l-0.1327,0.695101c-0.9065-0.1735-1.449301-0.932901-2.0313-1.746401
	c-0.6644-0.928699-1.388901-1.9415-2.7575-1.9415c-0.4487,0-0.803101,0.150499-1.051401,0.3864
	c-0.1987,0.188499-0.334499,0.433699-0.3997,0.700399c-0.066599,0.2724-0.061199,0.568899,0.022701,0.853001
	c0.118799,0.401899,0.397099,0.782598,0.852999,1.0457L21.077394,21.441601z"/>
<path class="st0" d="M32.767994,20.829901c0.455799-0.263102,0.7342-0.643801,0.852901-1.0457
	c0.084-0.284101,0.089298-0.580601,0.022697-0.853001c-0.065197-0.266701-0.201-0.5119-0.3997-0.700399
	c-0.248299-0.235901-0.602596-0.3864-1.0513-0.3864c-1.368599,0-2.093098,1.0128-2.757599,1.9415
	c-0.5819,0.813499-1.1248,1.572901-2.0313,1.746401L27.271095,20.8372c0.629-0.120399,1.0919-0.7679,1.5879-1.461201
	c0.7668-1.071499,1.6024-2.240299,3.333597-2.240299c0.643402,0,1.163303,0.2271,1.538303,0.583099
	c0.298798,0.2838,0.501999,0.6497,0.599297,1.046301c0.095802,0.3909,0.088402,0.8141-0.031197,1.218599
	c-0.167,0.564701-0.552502,1.0959-1.179501,1.457901L32.767994,20.829901z"/>
<path class="st1" d="M27.098394,40.257999c1.2393,0,2.2502-1.010899,2.2502-2.250198s-1.0109-2.249802-2.2502-2.249802
	c-1.239,0-2.2498,1.010502-2.2498,2.249802S25.859394,40.257999,27.098394,40.257999z"/>
</svg>
